<svg xmlns="http://www.w3.org/2000/svg" width="67.4" height="69" viewBox="0 0 67.4 69"><defs><style>.a{fill:#6c0054;}</style></defs><path class="a" d="M32.212,33.739a1.862,1.862,0,0,0,2.984,0l12.742-15.39c3.7-4.474,3.487-11.886-.655-16.009-3.6-3.6-8.974-2.951-12.274,1.038L33.7,4.954,32.4,3.391c-3.3-4-8.67-4.649-12.274-1.051-4.13,4.124-4.353,11.535-.655,16.009ZM66.144,44.2a3.492,3.492,0,0,0-4.985,0L50.348,54.155a6.861,6.861,0,0,1-4.68,1.887H31.826a2.178,2.178,0,0,1,0-4.312h9.162a4.064,4.064,0,0,0,3.9-3.585c.386-2.7-1.416-5.04-3.7-5.04H22.465a12.7,12.7,0,0,0-8.67,3.544l-5.441,5.08H1.872A2.035,2.035,0,0,0,0,53.885V66.822a2.035,2.035,0,0,0,1.872,2.156H43.62a6.9,6.9,0,0,0,4.68-1.887L65.992,50.786A4.746,4.746,0,0,0,66.144,44.2Z" transform="translate(0 0.022)"/></svg>