<svg xmlns="http://www.w3.org/2000/svg" width="49.733" height="45.133" viewBox="0 0 49.733 45.133"><defs><style>.a{fill:#6c0054;}</style></defs><path class="a" d="M40.408,108.207H32.249a1.291,1.291,0,0,1-1.166-1.381v-4.6a1.291,1.291,0,0,1,1.166-1.381h8.159a3.429,3.429,0,0,0,3.108-3.684v-22.1a3.429,3.429,0,0,0-3.108-3.684H32.249a1.291,1.291,0,0,1-1.166-1.381v-4.6A1.291,1.291,0,0,1,32.249,64h8.159c5.148,0,9.325,4.95,9.325,11.052v22.1C49.733,103.257,45.557,108.207,40.408,108.207Zm-4.565-23.14L19.524,65.727c-1.457-1.727-3.983-.518-3.983,1.957V78.736H2.331A2.569,2.569,0,0,0,0,81.5V92.551a2.569,2.569,0,0,0,2.331,2.763h13.21v11.052c0,2.475,2.526,3.684,3.983,1.957L35.843,88.982A3.165,3.165,0,0,0,35.843,85.068Z" transform="translate(0 -64)"/></svg>