<svg xmlns="http://www.w3.org/2000/svg" width="77.067" height="73" viewBox="0 0 77.067 73"><defs><style>.a{fill:#6c0054;}</style></defs><path class="a" d="M85.067,44.722C85.067,24.436,67.82,8,46.533,8S8,24.436,8,44.722C8,63.051,22.091,78.243,40.512,81V55.337H30.724V44.722h9.789V36.631c0-9.2,5.749-14.286,14.554-14.286a62.14,62.14,0,0,1,8.626.717v9.032h-4.86c-4.786,0-6.279,2.831-6.279,5.735v6.893H63.241L61.532,55.337H52.554V81C70.976,78.243,85.067,63.051,85.067,44.722Z" transform="translate(-8 -8)"/></svg>