<svg xmlns="http://www.w3.org/2000/svg" width="70.067" height="67.933" viewBox="0 0 70.067 67.933"><defs><style>.a{fill:#6c0054;}</style></defs><path class="a" d="M34.966,48.374a17.425,17.425,0,1,0,0,34.834,17.425,17.425,0,1,0,0-34.834Zm0,28.741A11.329,11.329,0,1,1,46.643,65.792,11.525,11.525,0,0,1,34.966,77.115ZM57.85,47.662A4.191,4.191,0,1,1,53.661,43.6,4.118,4.118,0,0,1,57.85,47.662Zm11.9,4.123c-.266-5.442-1.547-10.262-5.658-14.234-4.1-3.972-9.066-5.215-14.678-5.487-5.784-.318-23.118-.318-28.9,0-5.6.258-10.567,1.5-14.678,5.472S.453,46.328.171,51.77c-.328,5.609-.328,22.42,0,28.028C.437,85.24,1.719,90.06,5.83,94.032s9.066,5.215,14.678,5.487c5.784.318,23.118.318,28.9,0,5.612-.258,10.582-1.5,14.678-5.487,4.1-3.972,5.377-8.792,5.658-14.234C70.074,74.189,70.074,57.394,69.746,51.785ZM62.274,85.816a11.648,11.648,0,0,1-6.659,6.458C51,94.047,40.062,93.638,34.966,93.638s-16.053.394-20.649-1.364a11.649,11.649,0,0,1-6.659-6.458C5.83,81.344,6.252,70.733,6.252,65.792S5.845,50.224,7.659,45.767a11.649,11.649,0,0,1,6.659-6.458c4.611-1.774,15.553-1.364,20.649-1.364s16.053-.394,20.649,1.364a11.649,11.649,0,0,1,6.659,6.458c1.829,4.472,1.407,15.083,1.407,20.024S64.1,81.359,62.274,85.816Z" transform="translate(0.075 -31.825)"/></svg>